<?xml version="1.0" encoding="utf-8"?>
<!-- Generator: Adobe Illustrator 26.4.1, SVG Export Plug-In . SVG Version: 6.00 Build 0)  -->
<svg version="1.1" id="Video_Express" xmlns="http://www.w3.org/2000/svg" xmlns:xlink="http://www.w3.org/1999/xlink" x="0px"
	 y="0px" viewBox="0 0 120 120" style="enable-background:new 0 0 120 120;" xml:space="preserve">
<style type="text/css">
	.st0{fill:#F07557;}
	.st1{fill:#FFFFFF;}
</style>
<circle class="st0" cx="60" cy="60" r="59.7"/>
<g>
	<path class="st1" d="M28.9,66.2c0,2.6,2.1,4.8,4.8,4.8h7.9c0-8.1,8.7-15,17.4-15.1h0.9c11.7,0.7,17.7,9.3,17.7,15.1h4.2
		c2.6,0,4.8-2.1,4.8-4.8L89.8,35c0-2.6-2.1-4.8-4.8-4.8H38c-2.4,0-4.4,2-4.4,4.4l-0.4,2.6c-0.2,0-0.4-0.1-0.5-0.1H21.9
		c-1.4,0-2.6,1.2-2.6,2.6c0,1.4,1.2,2.6,2.6,2.6h10.5L31.6,48H17.5c-1.4,0-2.6,1.2-2.6,2.6c0,1.4,1.2,2.6,2.6,2.6h13.4L30,58.8H12.8
		c-1.4,0-2.6,1.2-2.6,2.6c0,1.4,1.2,2.6,2.6,2.6h16.5L28.9,66.2z M60.8,34.9c5.6,0,9.9,4.5,9.9,9.9c0,5.4-4.5,9.9-9.9,9.9
		c-5.4,0-9.9-4.5-9.9-9.9C51,39.4,55.2,34.9,60.8,34.9z"/>
	<path class="st1" d="M102.8,30.6l-7-7c0.8,1.4,1.2,2.9,1.2,4.6l-2.6,46.4c0,0,0.9,6.7-9,6.7H18.4c-1.7,0-3.3-0.5-4.6-1.2l7,7
		c1.6,1.8,3.8,2.8,6.3,2.8h21.8l-0.8,3.5h-8.9c-1.4,0-2.7,1-3.1,2.4l-0.8,3.2c-0.5,2,1,3.9,3.1,3.9H76c1.4,0,2.7-1,3.1-2.4l0.8-3.2
		c0.5-2-1-3.9-3.1-3.9H65.2l0.8-3.5h25.6c7.7,0,11.5-5.5,11.4-11.4l2.6-41.5C105.6,34.4,104.4,32.2,102.8,30.6z"/>
</g>
</svg>
